# xmcd
#
# Track frame offsets: 
#        150
#        15182
#        30987
#        52267
#        63892
#        78720
#        95044
#        107026
#        120299
#        134573
#        152720
#        167628
#
# Disc length: 2409 seconds
#
# Revision: 0
# Processed by: cddbd v1.5.2PL0 Copyright (c) Steve Scherf et al.
# Submitted via: ExactAudioCopy v0.99pb5
#
DISCID=9309670c
DTITLE=James Day - Firecracker
DYEAR=2009
DGENRE=Blues
TTITLE0=Blues On A Fuse
TTITLE1=Big Money
TTITLE2=Better Watch Your Step
TTITLE3=The Two Girls
TTITLE4=Fish Where They Bite
TTITLE5=Down The Shore
TTITLE6=Power Down
TTITLE7=Man About Town
TTITLE8=Boiled Peanuts
TTITLE9=Dead Broke Blues
TTITLE10=Before I Go
TTITLE11=Too Many Tattoos
EXTD=
EXTT0=
EXTT1=
EXTT2=
EXTT3=
EXTT4=
EXTT5=
EXTT6=
EXTT7=
EXTT8=
EXTT9=
EXTT10=
EXTT11=
PLAYORDER=
